<svg width="175" height="89" viewBox="0 0 175 89" fill="none" xmlns="http://www.w3.org/2000/svg">
<path d="M64.4226 35.4757C61.1597 33.5165 57.8666 34.5353 54.6679 35.547C45.0138 38.6006 39.3868 48.1354 41.0232 58.451C42.4952 67.731 51.5221 75.2186 60.9544 74.9835C70.9474 74.7345 79.4033 66.5264 80.1379 56.3765C80.2347 55.0392 80.341 53.6983 80.5376 52.3737C80.9804 49.392 83.1418 47.5157 85.9206 47.627C88.8956 47.7461 90.809 49.8349 91.0524 53.0005C92.4251 70.8535 78.6811 85.8915 61.0703 86.1185C42.8022 86.3541 29.8474 71.6854 29.864 55.257C29.8682 51.0785 30.7538 47.15 31.721 43.1296C32.5583 39.6494 32.6393 35.9212 32.6447 32.302C32.6545 25.7801 32.9542 19.2765 33.2829 12.77C33.4414 9.6334 34.9004 7.84432 37.4882 7.60574C40.403 7.33698 42.1544 8.66616 42.8431 11.8224C43.0847 12.93 43.1344 14.0963 43.1502 15.2376C43.1909 18.187 43.1638 21.1374 43.8098 24.2331C45.0043 20.5958 46.1998 16.9588 47.3929 13.321C48.2864 10.5965 49.1491 7.86098 50.0759 5.14838C51.1333 2.05328 53.2994 0.740983 56.0854 1.43483C58.7215 2.09136 60.0909 4.46239 59.4229 7.777C58.6344 11.6898 57.6019 15.5512 57.2259 19.6853C60.2785 14.3522 63.3401 9.02455 66.3775 3.68249C67.1913 2.25128 68.0266 0.801918 69.6676 0.309846C71.5554 -0.256214 73.4589 -0.13756 74.8862 1.43378C76.337 3.0309 76.7971 4.94469 75.8282 7.01268C73.8445 11.2466 71.8256 15.4633 69.8325 19.6927C69.227 20.9778 68.6586 22.2812 68.0885 23.5424C68.9346 24.8312 70.2478 24.9048 71.3442 25.3032C77.0007 27.3586 81.5257 30.9317 85.0796 35.8322C87.2063 38.7646 87.0036 41.9771 84.6117 44.0502C82.1517 46.1823 78.8326 45.7782 76.442 42.8235C73.3621 39.017 69.8776 35.9946 64.6299 35.4495C64.4073 35.4599 64.4226 35.4757 64.4226 35.4757Z" fill="white"/>
<path d="M149.652 37.6943C148.796 35.4801 147.072 35.747 145.52 35.8265C138.106 36.2065 138.107 36.2289 138.073 28.6641C138.054 24.3836 138.054 24.3705 142.211 24.3647C151.956 24.3512 161.702 24.4322 171.445 24.2924C174.049 24.2551 175.337 24.8321 174.924 27.7661C174.713 29.269 174.727 30.8484 174.914 32.3577C175.29 35.3916 173.929 36.2881 171.206 36.0296C169.627 35.8798 168.016 36.1059 166.431 35.9958C164.067 35.8317 163.35 36.9405 163.368 39.246C163.444 49.1188 163.406 58.9927 163.394 68.8662C163.388 73.6499 163.372 73.6497 158.847 73.6445C156.786 73.6422 154.717 73.5278 152.665 73.6695C150.472 73.8211 149.714 72.9925 149.733 70.7136C149.817 60.6491 149.755 50.5834 149.742 40.5181C149.74 39.6559 149.711 38.7937 149.652 37.6943Z" fill="white"/>
<path d="M1.53436 88.5899C0.415399 88.4262 0.00518007 87.8675 0.00339403 86.9809C-0.00256509 84.0274 0.00113583 81.0739 0.00113583 78.0016C1.92035 78.0016 3.57423 78.0545 5.22372 77.99C8.19553 77.8738 9.75402 76.4997 10.1718 73.5619C10.5083 71.1959 10.7151 68.8216 10.7484 66.4133C10.9287 53.3794 10.1562 40.3495 10.6566 27.3116C10.7412 25.1079 11.2112 24.1852 13.4867 24.3244C16.2885 24.4958 19.1077 24.4087 21.9185 24.368C23.455 24.3457 24.1031 25.0006 24.0987 26.5931C24.057 41.741 24.3749 56.899 23.9321 72.034C23.5575 84.8388 15.3355 90.6622 1.53436 88.5899Z" fill="#2B3E5D"/>
<path d="M103.042 42.3686C103.045 37.1892 103.147 32.2948 103.013 27.4072C102.945 24.9613 103.893 24.2024 106.155 24.332C108.678 24.4766 111.221 24.4712 113.745 24.3313C115.845 24.2149 116.449 24.9859 116.427 27.1425C116.321 37.7878 116.443 48.4355 116.338 59.0808C116.314 61.5522 117.005 62.5392 119.52 62.4332C123.545 62.2634 127.587 62.5198 131.611 62.331C134.273 62.2061 135.149 63.2759 134.921 65.8561C134.77 67.5689 134.782 69.3142 134.907 71.0309C135.075 73.3589 133.838 73.6938 131.963 73.6814C123.338 73.6242 114.712 73.5845 106.088 73.6889C103.773 73.717 102.988 72.9523 103.014 70.567C103.112 61.2645 103.047 51.9601 103.042 42.3686Z" fill="white"/>
<path d="M64.3998 35.452C64.4114 35.8264 64.5907 36.3132 64.4267 36.5752C61.2052 41.7208 63.8532 46.7453 64.7123 51.7912C65.401 55.8362 66.1994 59.8618 66.9535 63.8951C67.2644 65.5581 66.332 66.5435 65.2225 67.5429C60.3708 71.9132 60.4206 71.8935 55.6614 67.4413C54.3354 66.2009 53.8927 64.9802 54.2686 63.1453C55.5907 56.6913 56.7892 50.2101 57.9749 43.7278C58.3224 41.8277 58.2689 39.9968 57.1512 38.2108C56.0402 36.4357 56.6573 35.2953 58.8418 35.3334C60.5277 35.3629 62.2134 35.4008 64.1609 35.4552C64.4227 35.4755 64.4075 35.4597 64.3998 35.452Z" fill="white"/>
</svg>
